<svg id="visual" viewBox="0 0 900 600" width="900" height="600" xmlns="http://www.w3.org/2000/svg" xmlns:xlink="http://www.w3.org/1999/xlink" version="1.1"><rect x="0" y="0" width="900" height="600" fill="#fff"></rect><g transform="translate(447.53247736629277 283.8008608749268)"><path d="M124.8 -130.9C156.1 -122.4 172.1 -77.8 176.5 -33.9C180.8 9.9 173.6 52.9 149.8 79.3C126 105.7 85.8 115.3 46 132.5C6.2 149.7 -33.2 174.5 -64 167.1C-94.8 159.6 -117.1 120.1 -136.4 81.3C-155.7 42.6 -171.9 4.7 -172.7 -37.4C-173.6 -79.6 -159.1 -126 -127.8 -134.5C-96.4 -143 -48.2 -113.7 -0.7 -112.8C46.7 -111.9 93.4 -139.5 124.8 -130.9" fill="#280137"></path></g></svg>