<svg id="visual" viewBox="0 0 900 600" width="900" height="600" xmlns="http://www.w3.org/2000/svg" xmlns:xlink="http://www.w3.org/1999/xlink" version="1.1"><rect x="0" y="0" width="900" height="600" fill="#fff"></rect><g transform="translate(436.5905421429967 280.4645486510183)"><path d="M119.5 -140.5C148.5 -118 161.4 -74.4 141.3 -46C121.1 -17.7 67.9 -4.6 51.7 35.8C35.5 76.1 56.2 143.8 42 174.8C27.7 205.8 -21.5 200.2 -61.8 180.7C-102 161.3 -133.3 128.2 -121.8 95.7C-110.4 63.2 -56.2 31.4 -28.7 15.6C-1.3 -0.2 -0.7 -0.1 -0.3 -27.7C0 -55.3 0 -110.7 22.6 -137.6C45.2 -164.5 90.4 -163.1 119.5 -140.5" fill="#f6f6f6"></path></g></svg>